<svg width="20" height="20" viewBox="0 0 20 20" fill="none" xmlns="http://www.w3.org/2000/svg">
<path fill-rule="evenodd" clip-rule="evenodd" d="M18.9226 1.91073C19.248 2.23617 19.248 2.76381 18.9226 3.08925L9.75592 12.2559C9.43049 12.5813 8.90285 12.5813 8.57741 12.2559L6.07741 9.75591C5.75198 9.43048 5.75198 8.90284 6.07741 8.5774C6.40285 8.25196 6.93049 8.25196 7.25592 8.5774L9.16667 10.4881L17.7441 1.91073C18.0695 1.5853 18.5972 1.5853 18.9226 1.91073Z" fill="black"/>
<path fill-rule="evenodd" clip-rule="evenodd" d="M3.33334 3.33332C2.8731 3.33332 2.5 3.70642 2.5 4.16666V15.8333C2.5 16.2936 2.8731 16.6667 3.33334 16.6667H15C15.4602 16.6667 15.8333 16.2936 15.8333 15.8333V9.99999C15.8333 9.53975 16.2064 9.16666 16.6667 9.16666C17.1269 9.16666 17.5 9.53975 17.5 9.99999V15.8333C17.5 17.214 16.3807 18.3333 15 18.3333H3.33334C1.95262 18.3333 0.833336 17.214 0.833336 15.8333V4.16666C0.833336 2.78594 1.95262 1.66666 3.33334 1.66666H12.5C12.9602 1.66666 13.3333 2.03975 13.3333 2.49999C13.3333 2.96023 12.9602 3.33332 12.5 3.33332H3.33334Z" fill="black"/>
</svg>
