<svg width="20" height="20" viewBox="0 0 20 20" fill="none" xmlns="http://www.w3.org/2000/svg">
<path fill-rule="evenodd" clip-rule="evenodd" d="M0 15.8333C0 13.5321 1.86548 11.6667 4.16667 11.6667H10.8333C13.1345 11.6667 15 13.5321 15 15.8333V17.5C15 17.9602 14.6269 18.3333 14.1667 18.3333C13.7064 18.3333 13.3333 17.9602 13.3333 17.5V15.8333C13.3333 14.4526 12.214 13.3333 10.8333 13.3333H4.16667C2.78595 13.3333 1.66667 14.4526 1.66667 15.8333V17.5C1.66667 17.9602 1.29357 18.3333 0.833333 18.3333C0.373096 18.3333 0 17.9602 0 17.5V15.8333Z" fill="black"/>
<path fill-rule="evenodd" clip-rule="evenodd" d="M3.33334 5.83332C3.33334 3.53214 5.19882 1.66666 7.50001 1.66666C9.8012 1.66666 11.6667 3.53214 11.6667 5.83332C11.6667 8.13451 9.8012 9.99999 7.50001 9.99999C5.19882 9.99999 3.33334 8.13451 3.33334 5.83332ZM7.50001 3.33332C6.1193 3.33332 5.00001 4.45261 5.00001 5.83332C5.00001 7.21404 6.1193 8.33332 7.50001 8.33332C8.88072 8.33332 10 7.21404 10 5.83332C10 4.45261 8.88072 3.33332 7.50001 3.33332Z" fill="black"/>
<path fill-rule="evenodd" clip-rule="evenodd" d="M15.8598 12.4C15.9749 11.9544 16.4294 11.6864 16.875 11.8015C18.7135 12.2762 19.9986 13.9339 20 15.8327L20 17.5C20 17.9602 19.6269 18.3333 19.1667 18.3333C18.7064 18.3333 18.3333 17.9602 18.3333 17.5L18.3333 15.834C18.3333 15.8339 18.3333 15.8341 18.3333 15.834C18.3324 14.6948 17.5614 13.7 16.4583 13.4152C16.0127 13.3002 15.7447 12.8456 15.8598 12.4Z" fill="black"/>
<path fill-rule="evenodd" clip-rule="evenodd" d="M12.526 2.40165C12.6402 1.95579 13.0942 1.6869 13.54 1.80105C15.3837 2.2731 16.6732 3.93438 16.6732 5.83751C16.6732 7.74065 15.3837 9.40192 13.54 9.87397C13.0942 9.98813 12.6402 9.71923 12.526 9.27338C12.4119 8.82752 12.6808 8.37354 13.1266 8.25939C14.2328 7.97616 15.0065 6.97939 15.0065 5.83751C15.0065 4.69563 14.2328 3.69887 13.1266 3.41564C12.6808 3.30148 12.4119 2.8475 12.526 2.40165Z" fill="black"/>
</svg>
